<svg width="274" height="168" viewBox="0 0 274 168" fill="none" xmlns="http://www.w3.org/2000/svg">
<path d="M116.214 0.313853L118.922 0.640427L116.515 1.07586C115.191 1.29357 112.122 1.45686 109.715 1.45686C104.239 1.45686 96.5967 2.87201 94.7313 4.17831C93.949 4.7226 92.5048 5.32131 91.6021 5.53903C90.6995 5.70232 89.0146 6.73647 87.8713 7.77062C86.728 8.85919 84.9829 10.0022 83.9599 10.4376C82.9369 10.8186 80.2892 12.7236 78.1229 14.6831C75.9566 16.5881 72.8877 18.8741 71.2629 19.6906C68.3143 21.269 60.2509 27.9093 60.2509 28.7802C60.2509 29.0523 61.8154 28.0726 63.741 26.603C67.8329 23.3917 70.9019 21.8133 70.9019 22.9563C70.9019 23.3373 70.5408 23.555 70.1196 23.3917C69.6984 23.2829 69.0364 23.6094 68.6152 24.2082C68.194 24.8069 66.3887 26.2765 64.5835 27.4195C60.2509 30.1409 57.3023 32.5358 57.1217 33.5699C57.0014 34.0054 56.3996 34.8218 55.7377 35.3661C54.0528 36.7812 54.8351 36.4547 62.5375 32.7535C66.3887 30.9029 68.9763 29.3789 68.555 29.1612C67.8329 28.7802 73.1885 26.3309 79.1459 24.2626C81.0113 23.6639 82.636 22.9563 82.8166 22.6841C83.2378 22.0854 78.1229 23.3917 73.1885 25.1334C71.2027 25.841 70.1196 26.1132 70.7815 25.6233C72.4063 24.5347 87.089 20.2893 94.2499 18.9285C97.5595 18.2754 101.471 17.459 102.975 17.1324C104.48 16.8058 106.887 16.3704 108.391 16.1527C109.895 15.8805 111.881 15.554 112.844 15.2818C114.108 15.0097 114.469 15.0641 114.168 15.554C113.867 15.9894 114.649 16.1527 116.695 16.1527C118.32 16.1527 121.148 16.4248 122.893 16.697C126.444 17.2957 140.825 20.6703 145.098 21.9221C150.213 23.3917 146.542 21.7044 139.682 19.4184C135.891 18.1665 131.859 16.6425 130.716 16.0438C127.647 14.4654 123.435 13.2135 120.727 13.1591C116.575 12.9414 116.214 12.8869 116.214 12.3426C116.214 11.6351 123.615 12.2882 127.647 13.3768C129.633 13.9211 130.957 14.6287 130.957 15.0641C130.957 15.554 132.822 16.3704 136.072 17.2957C140.344 18.4931 143.714 19.7994 152.62 23.6094C152.981 23.7727 152.56 23.3373 151.717 22.7386C149.671 21.2146 150.514 21.3234 154.184 23.0107C155.869 23.7727 157.374 24.2626 157.554 24.0993C158.036 23.6639 152.018 20.9424 145.278 18.5475C143.172 17.84 139.803 16.6425 137.696 15.935C135.65 15.1729 132.461 13.9211 130.656 13.1591C127.828 11.9616 127.647 11.7984 129.452 12.1249C130.596 12.2882 133.304 13.0502 135.41 13.7578C137.516 14.4654 139.381 14.9552 139.502 14.8464C139.923 14.5198 136.794 13.1047 133.785 12.2882C132.401 11.9616 131.378 11.5262 131.498 11.3629C131.92 11.0364 139.562 13.3768 142.992 14.9552C144.677 15.6628 147.264 17.078 148.829 18.1121C152.861 20.6703 158.878 23.936 161.345 24.8613C162.489 25.2967 165.437 26.6575 167.844 27.9637C170.311 29.27 172.478 30.3042 172.779 30.3042C173.079 30.3042 175.065 31.3928 177.231 32.7535C179.398 34.1142 181.203 35.0395 181.203 34.8762C181.203 34.6585 180.12 33.5699 178.796 32.3725C177.472 31.1751 176.389 30.0865 176.389 29.9232C176.389 29.8143 177.954 30.7941 179.879 32.1003C181.745 33.4066 184.693 35.1484 186.318 36.0192C189.206 37.4344 189.086 37.3255 183.008 31.7193C179.578 28.5625 176.991 25.9499 177.292 25.9499C177.593 25.9499 180.601 28.3992 183.911 31.3928C188.003 35.0395 190.53 36.9445 191.734 37.1622C193.72 37.4888 194.201 38.2508 186.98 30.3042C181.083 23.8271 181.203 23.9904 181.203 24.6436C181.203 24.9157 183.008 27.2017 185.295 29.7055C191.974 37.2711 191.914 37.38 184.633 30.6308C180.782 27.0929 177.593 23.936 177.593 23.6094C177.593 23.2829 178.315 23.6094 179.217 24.3714C180.18 25.079 178.977 23.936 176.63 21.8133C171.455 17.2412 168.687 15.0641 167.904 15.0641C167.603 15.0641 169.649 17.1324 172.478 19.6361C175.306 22.1943 177.593 24.5347 177.593 24.8613C177.593 25.1334 175.847 24.2082 173.741 22.6841C171.635 21.2146 169.288 19.6361 168.506 19.2551C166.52 18.3298 160.142 14.4109 160.142 14.1388C160.142 14.0299 161.225 14.4654 162.549 15.0641C163.812 15.6628 165.257 16.1527 165.678 16.1527C166.942 16.1527 163.211 14.3021 158.637 12.6692C156.351 11.7984 153.944 10.6553 153.282 10.0566C152.199 9.02248 152.199 9.02248 155.087 9.34905C159.66 9.89334 163.692 10.7642 164.113 11.3085C164.294 11.5806 164.896 11.7984 165.497 11.7984C166.039 11.7984 167.062 12.1249 167.664 12.5604C168.687 13.2135 168.626 13.2679 166.881 13.2135C165.798 13.2135 164.956 12.9958 164.956 12.8325C164.956 12.6692 164.595 12.5059 164.234 12.4515C163.812 12.4515 161.947 11.9072 160.142 11.3085C158.336 10.7098 156.291 10.2199 155.629 10.2199C154.846 10.2199 155.207 10.4921 156.531 10.9275C157.735 11.3629 160.322 12.3426 162.248 13.1591C164.234 13.9755 166.641 14.6287 167.603 14.6287C170.311 14.5742 172.117 15.6628 176.57 20.1804C178.856 22.4664 180.902 24.2082 181.203 24.0449C181.504 23.8816 184.453 26.6575 187.822 30.1409C196.608 39.3938 198.895 41.6798 199.376 41.7343C199.617 41.7343 199.677 41.3533 199.496 40.9178C199.075 39.9381 200.098 39.8293 201.181 40.7545C203.107 42.4418 206.477 44.4557 206.477 43.9659C206.477 43.6393 205.634 42.1153 204.611 40.5368C203.348 38.5774 203.107 37.9787 203.889 38.6318C204.551 39.1217 205.694 40.809 206.477 42.2786C207.259 43.8026 208.222 45 208.643 45C209.485 45 209.245 43.9659 207.921 42.0064C207.56 41.4077 207.078 40.2647 206.838 39.4482C206.657 38.5774 206.116 37.9787 205.755 38.0875C205.333 38.142 204.972 37.7065 204.852 37.1078C204.671 36.2369 204.732 36.1825 205.213 36.8357C205.755 37.5432 205.875 37.5432 205.875 36.6724C205.875 36.1825 205.514 35.7471 205.093 35.7471C204.732 35.7471 204.07 34.8218 203.648 33.6788C203.047 31.8826 203.047 31.7738 203.829 32.6991C204.31 33.2978 204.671 34.0598 204.671 34.4408C204.671 34.7674 205.032 35.2028 205.454 35.3661C205.935 35.5294 206.778 36.8357 207.379 38.3052C208.462 40.8634 209.485 42.4963 209.846 42.1153C210.147 41.8976 206.537 33.9509 205.815 33.3522C205.514 33.0256 205.273 32.5902 205.273 32.2636C205.273 31.3383 207.801 34.3319 208.944 36.6179C209.546 37.8698 210.508 40.1558 210.99 41.7887L211.892 44.7279L211.592 42.0064C211.471 40.4824 211.17 38.1964 210.93 36.8357C210.569 34.0054 205.514 24.1537 204.671 24.5892C204.431 24.7524 202.926 23.8816 201.362 22.6841C198.774 20.6703 197.932 20.2348 196.668 20.4526C196.367 20.507 195.465 20.0716 194.562 19.5273C192.275 18.1121 189.206 17.078 188.484 17.459C188.183 17.6767 186.98 17.2957 185.897 16.697C182.768 15.0097 179.939 13.9755 179.338 14.2477C179.097 14.4109 177.773 14.0299 176.389 13.4312C172.538 11.6895 173.561 12.5604 179.097 15.8805C181.925 17.5134 184.152 19.2007 184.031 19.5273C183.971 19.8538 184.272 20.2348 184.753 20.3981C185.295 20.5614 185.415 20.3981 185.114 19.9627C184.814 19.4728 184.874 19.364 185.355 19.6361C185.716 19.8538 185.897 20.2348 185.716 20.507C185.536 20.7791 186.378 21.5956 187.642 22.3031C190.711 24.0993 196.247 29.9776 196.608 31.7738C196.849 33.2434 196.849 33.2434 195.946 32.2092C195.404 31.6105 195.164 30.8485 195.284 30.4675C195.465 30.0865 195.404 29.8143 195.164 29.8688C194.923 29.9232 193.118 28.508 191.072 26.7119C186.137 22.3576 179.458 17.0235 178.616 16.7514C178.194 16.6425 180.962 19.2551 184.693 22.5753C188.364 25.8954 191.433 28.889 191.433 29.2156C191.433 29.5422 191.674 29.651 192.035 29.4878C192.516 29.2156 193.599 30.4675 195.886 33.9509C196.127 34.3319 196.187 34.6585 196.006 34.6585C195.826 34.6585 194.983 33.5699 194.081 32.2092C193.238 30.8485 192.396 29.8143 192.215 29.9232C191.794 30.3586 193.599 33.7876 194.622 34.6041C195.705 35.3661 196.066 36.5635 195.104 36.0192C194.803 35.8559 193.659 34.7129 192.516 33.4611C191.433 32.2092 190.891 31.3928 191.373 31.6105C193.72 32.9712 190.169 29.1068 180.782 20.2348C178.796 18.2754 177.412 16.697 177.713 16.697C178.074 16.697 178.014 16.316 177.593 15.8805C177.171 15.3907 176.449 15.1185 175.968 15.2818C175.547 15.4451 173.501 14.5742 171.394 13.3224C168.506 11.6351 168.085 11.1996 169.469 11.4718C170.672 11.7439 171.094 11.6895 170.672 11.3629C169.95 10.7098 158.336 8.47819 157.675 8.85919C157.434 8.96805 157.133 8.85919 157.013 8.53262C156.952 8.26048 154.245 7.66176 151.115 7.22633C147.986 6.84532 143.834 5.8656 141.909 5.04917C139.983 4.28716 137.395 3.63402 136.192 3.57959C132.762 3.47073 131.498 3.08973 132.521 2.49101C133.063 2.16444 132.581 2.11001 131.318 2.38215C129.813 2.59987 129.392 2.54544 129.693 2.11001C129.934 1.72901 129.693 1.45686 129.031 1.40243C125.36 1.23915 123.194 0.912572 122.893 0.531569C122.713 0.313853 120.486 0.0417089 118.019 0.0417089C114.469 -0.067149 114.108 0.0417089 116.214 0.313853Z" fill="#F7D9CE"/>
<path d="M203.648 21.5956C206.778 23.8271 212.434 36.2914 212.554 41.2444L212.615 43.095L213.337 40.9178L214.119 38.7407L214.42 41.7343C214.66 44.2924 214.721 44.0747 214.901 39.8293L215.142 34.9306L215.503 39.5571L215.864 44.1836L215.984 39.6115C216.105 35.2028 215.563 32.5902 213.276 26.603C212.795 25.3512 212.073 24.317 211.712 24.317C211.23 24.317 211.291 24.5347 211.772 24.9702C212.193 25.3512 212.494 26.0043 212.494 26.4942C212.494 26.984 211.892 26.6575 210.93 25.5144C208.823 23.1196 207.981 23.2829 209.786 25.7322C211.471 28.0182 212.855 31.7738 213.337 35.5838C213.637 37.7065 213.457 37.38 212.314 33.8421C210.388 27.5827 205.454 20.507 203.047 20.507C202.385 20.507 202.625 20.8336 203.648 21.5956Z" fill="#F7D9CE"/>
<path d="M32.6713 136V123.22H33.9313V134.884H41.3113V136H32.6713ZM42.9135 124.66V122.86H44.1375V124.66H42.9135ZM42.9135 136V126.622H44.1375V136H42.9135ZM47.2834 136V127.594H45.9874V126.622H47.2834V126.37C47.2834 125.218 47.5294 124.318 48.0214 123.67C48.5254 123.01 49.1974 122.68 50.0374 122.68C50.3974 122.68 50.7514 122.734 51.0994 122.842C51.4594 122.95 51.7654 123.094 52.0174 123.274L51.6394 124.156C51.2794 123.88 50.8234 123.742 50.2714 123.742C49.7074 123.742 49.2694 123.964 48.9574 124.408C48.6574 124.852 48.5074 125.494 48.5074 126.334V126.622H51.0994V127.594H48.5074V136H47.2834ZM56.5436 136.18C55.6436 136.18 54.8396 135.958 54.1316 135.514C53.4236 135.07 52.8656 134.476 52.4576 133.732C52.0496 132.988 51.8456 132.172 51.8456 131.284C51.8456 130.408 52.0436 129.604 52.4396 128.872C52.8476 128.14 53.4056 127.558 54.1136 127.126C54.8216 126.682 55.6256 126.46 56.5256 126.46C57.4496 126.46 58.2596 126.682 58.9556 127.126C59.6516 127.57 60.1916 128.158 60.5756 128.89C60.9716 129.61 61.1696 130.402 61.1696 131.266C61.1696 131.458 61.1636 131.62 61.1516 131.752H53.1236C53.1836 132.424 53.3756 133.024 53.6996 133.552C54.0236 134.068 54.4376 134.482 54.9416 134.794C55.4456 135.094 55.9976 135.244 56.5976 135.244C57.2096 135.244 57.7856 135.088 58.3256 134.776C58.8656 134.464 59.2496 134.056 59.4776 133.552L60.5396 133.84C60.3476 134.296 60.0476 134.704 59.6396 135.064C59.2436 135.412 58.7816 135.688 58.2536 135.892C57.7256 136.084 57.1556 136.18 56.5436 136.18ZM53.0876 130.87H60.0176C59.9696 130.198 59.7836 129.604 59.4596 129.088C59.1356 128.56 58.7216 128.152 58.2176 127.864C57.7136 127.564 57.1556 127.414 56.5436 127.414C55.9316 127.414 55.3736 127.564 54.8696 127.864C54.3656 128.152 53.9516 128.56 53.6276 129.088C53.3156 129.604 53.1356 130.198 53.0876 130.87ZM67.6459 124.66V122.86H68.8699V124.66H67.6459ZM67.6459 136V126.622H68.8699V136H67.6459ZM74.6438 136.18C73.8758 136.18 73.1618 136.054 72.5018 135.802C71.8538 135.538 71.2838 135.154 70.7918 134.65L71.2958 133.786C71.8238 134.278 72.3518 134.638 72.8798 134.866C73.4198 135.082 73.9898 135.19 74.5898 135.19C75.3098 135.19 75.8978 135.046 76.3538 134.758C76.8218 134.458 77.0558 134.032 77.0558 133.48C77.0558 133.108 76.9418 132.826 76.7138 132.634C76.4978 132.43 76.1798 132.268 75.7598 132.148C75.3518 132.028 74.8598 131.89 74.2838 131.734C73.6358 131.554 73.0898 131.368 72.6458 131.176C72.2138 130.972 71.8838 130.72 71.6558 130.42C71.4398 130.108 71.3318 129.706 71.3318 129.214C71.3318 128.614 71.4818 128.11 71.7818 127.702C72.0938 127.294 72.5138 126.988 73.0418 126.784C73.5818 126.568 74.1818 126.46 74.8418 126.46C75.5618 126.46 76.1978 126.574 76.7498 126.802C77.3018 127.03 77.7518 127.348 78.0998 127.756L77.5058 128.584C77.1818 128.2 76.7798 127.918 76.2998 127.738C75.8318 127.546 75.3218 127.45 74.7698 127.45C74.3858 127.45 74.0198 127.504 73.6718 127.612C73.3238 127.708 73.0358 127.876 72.8078 128.116C72.5918 128.344 72.4838 128.662 72.4838 129.07C72.4838 129.574 72.6698 129.922 73.0418 130.114C73.4138 130.306 73.9778 130.51 74.7338 130.726C75.4418 130.918 76.0598 131.11 76.5878 131.302C77.1158 131.494 77.5238 131.752 77.8118 132.076C78.0998 132.388 78.2438 132.826 78.2438 133.39C78.2438 134.266 77.9138 134.95 77.2538 135.442C76.5938 135.934 75.7238 136.18 74.6438 136.18ZM88.151 136H86.927V130.762C86.927 129.658 86.759 128.854 86.423 128.35C86.099 127.834 85.595 127.576 84.911 127.576C84.431 127.576 83.957 127.696 83.489 127.936C83.021 128.164 82.607 128.482 82.247 128.89C81.899 129.286 81.647 129.742 81.491 130.258V136H80.267V126.622H81.383V128.746C81.755 128.062 82.301 127.51 83.021 127.09C83.741 126.67 84.521 126.46 85.361 126.46C86.057 126.46 86.609 126.628 87.017 126.964C87.425 127.288 87.713 127.756 87.881 128.368C88.061 128.968 88.151 129.682 88.151 130.51V136ZM89.7223 126.622L90.0283 124.696H89.5963V122.86H90.7843V124.696L90.3343 126.622H89.7223ZM97.0014 135.55C96.8574 135.61 96.5934 135.718 96.2094 135.874C95.8254 136.03 95.3814 136.108 94.8774 136.108C94.3494 136.108 93.8874 135.958 93.4914 135.658C93.0954 135.358 92.8974 134.908 92.8974 134.308V127.594H91.6014V126.622H92.8974V123.454H94.1214V126.622H96.2814V127.594H94.1214V133.966C94.1454 134.314 94.2654 134.572 94.4814 134.74C94.7094 134.896 94.9674 134.974 95.2554 134.974C95.5914 134.974 95.8914 134.92 96.1554 134.812C96.4314 134.692 96.6054 134.608 96.6774 134.56L97.0014 135.55ZM175.824 136.18C175.092 136.18 174.414 135.994 173.79 135.622C173.166 135.238 172.68 134.758 172.332 134.182V136H171.234V122.86H172.458V128.584C172.878 127.948 173.382 127.438 173.97 127.054C174.558 126.658 175.242 126.46 176.022 126.46C176.682 126.46 177.27 126.598 177.786 126.874C178.314 127.15 178.764 127.522 179.136 127.99C179.508 128.446 179.79 128.968 179.982 129.556C180.174 130.132 180.27 130.726 180.27 131.338C180.27 132.214 180.072 133.018 179.676 133.75C179.292 134.482 178.764 135.07 178.092 135.514C177.42 135.958 176.664 136.18 175.824 136.18ZM175.536 135.1C176.22 135.1 176.82 134.92 177.336 134.56C177.864 134.2 178.278 133.738 178.578 133.174C178.878 132.598 179.028 131.986 179.028 131.338C179.028 130.678 178.884 130.06 178.596 129.484C178.32 128.908 177.93 128.44 177.426 128.08C176.922 127.72 176.34 127.54 175.68 127.54C174.948 127.54 174.3 127.774 173.736 128.242C173.184 128.71 172.758 129.256 172.458 129.88V132.796C172.518 133.228 172.716 133.618 173.052 133.966C173.388 134.314 173.784 134.59 174.24 134.794C174.696 134.998 175.128 135.1 175.536 135.1ZM182.253 132.13V126.622H183.477V131.914C183.477 134.038 184.203 135.1 185.655 135.1C186.375 135.1 187.047 134.866 187.671 134.398C188.307 133.93 188.763 133.306 189.039 132.526V126.622H190.263V134.524C190.263 134.848 190.407 135.016 190.695 135.028V136C190.551 136.024 190.437 136.036 190.353 136.036C190.281 136.036 190.203 136.036 190.119 136.036C189.867 136.012 189.651 135.916 189.471 135.748C189.303 135.58 189.219 135.376 189.219 135.136L189.183 133.876C188.775 134.608 188.217 135.178 187.509 135.586C186.813 135.982 186.057 136.18 185.241 136.18C183.249 136.18 182.253 134.83 182.253 132.13ZM197.531 135.55C197.387 135.61 197.123 135.718 196.739 135.874C196.355 136.03 195.911 136.108 195.407 136.108C194.879 136.108 194.417 135.958 194.021 135.658C193.625 135.358 193.427 134.908 193.427 134.308V127.594H192.131V126.622H193.427V123.454H194.651V126.622H196.811V127.594H194.651V133.966C194.675 134.314 194.795 134.572 195.011 134.74C195.239 134.896 195.497 134.974 195.785 134.974C196.121 134.974 196.421 134.92 196.685 134.812C196.961 134.692 197.135 134.608 197.207 134.56L197.531 135.55ZM203.696 138.88C203.864 138.892 204.026 138.898 204.182 138.898C204.338 138.91 204.452 138.904 204.524 138.88C204.668 138.868 204.8 138.784 204.92 138.628C205.052 138.484 205.208 138.208 205.388 137.8C205.58 137.404 205.838 136.804 206.162 136L202.076 126.622H203.372L206.81 134.74L209.978 126.622H211.202L206.342 138.718C206.21 139.066 205.988 139.366 205.676 139.618C205.364 139.87 204.95 140.002 204.434 140.014C204.326 140.026 204.212 140.026 204.092 140.014C203.972 140.014 203.84 140.002 203.696 139.978V138.88ZM216.574 136.18C215.674 136.18 214.87 135.958 214.162 135.514C213.466 135.07 212.92 134.482 212.524 133.75C212.128 133.006 211.93 132.202 211.93 131.338C211.93 130.462 212.128 129.658 212.524 128.926C212.932 128.182 213.484 127.588 214.18 127.144C214.888 126.688 215.686 126.46 216.574 126.46C217.474 126.46 218.272 126.688 218.968 127.144C219.676 127.588 220.228 128.182 220.624 128.926C221.032 129.658 221.236 130.462 221.236 131.338C221.236 132.202 221.038 133.006 220.642 133.75C220.246 134.482 219.694 135.07 218.986 135.514C218.29 135.958 217.486 136.18 216.574 136.18ZM213.172 131.356C213.172 132.052 213.322 132.688 213.622 133.264C213.934 133.828 214.348 134.278 214.864 134.614C215.38 134.938 215.95 135.1 216.574 135.1C217.198 135.1 217.768 134.932 218.284 134.596C218.8 134.26 219.214 133.804 219.526 133.228C219.838 132.652 219.994 132.016 219.994 131.32C219.994 130.624 219.838 129.988 219.526 129.412C219.214 128.836 218.8 128.38 218.284 128.044C217.768 127.708 217.198 127.54 216.574 127.54C215.962 127.54 215.398 127.714 214.882 128.062C214.366 128.398 213.952 128.854 213.64 129.43C213.328 130.006 213.172 130.648 213.172 131.356ZM223.193 132.13V126.622H224.417V131.914C224.417 134.038 225.143 135.1 226.595 135.1C227.315 135.1 227.987 134.866 228.611 134.398C229.247 133.93 229.703 133.306 229.979 132.526V126.622H231.203V134.524C231.203 134.848 231.347 135.016 231.635 135.028V136C231.491 136.024 231.377 136.036 231.293 136.036C231.221 136.036 231.143 136.036 231.059 136.036C230.807 136.012 230.591 135.916 230.411 135.748C230.243 135.58 230.159 135.376 230.159 135.136L230.123 133.876C229.715 134.608 229.157 135.178 228.449 135.586C227.753 135.982 226.997 136.18 226.181 136.18C224.189 136.18 223.193 134.83 223.193 132.13ZM238.65 127.702C237.834 127.726 237.114 127.954 236.49 128.386C235.878 128.818 235.446 129.412 235.194 130.168V136H233.97V126.622H235.122V128.872C235.446 128.212 235.872 127.678 236.4 127.27C236.94 126.862 237.51 126.634 238.11 126.586C238.23 126.574 238.332 126.568 238.416 126.568C238.5 126.568 238.578 126.574 238.65 126.586V127.702ZM138.528 157.18C137.616 157.18 136.806 156.958 136.098 156.514C135.39 156.058 134.832 155.464 134.424 154.732C134.016 153.988 133.812 153.172 133.812 152.284C133.812 151.396 134.01 150.592 134.406 149.872C134.802 149.14 135.354 148.558 136.062 148.126C136.77 147.682 137.586 147.46 138.51 147.46C139.386 147.46 140.154 147.664 140.814 148.072C141.486 148.468 141.99 149.008 142.326 149.692L141.138 150.07C140.874 149.59 140.502 149.218 140.022 148.954C139.554 148.678 139.032 148.54 138.456 148.54C137.82 148.54 137.244 148.702 136.728 149.026C136.224 149.35 135.816 149.8 135.504 150.376C135.204 150.94 135.054 151.576 135.054 152.284C135.054 152.992 135.21 153.634 135.522 154.21C135.834 154.786 136.248 155.248 136.764 155.596C137.28 155.932 137.85 156.1 138.474 156.1C138.882 156.1 139.278 156.028 139.662 155.884C140.046 155.74 140.376 155.548 140.652 155.308C140.928 155.056 141.114 154.786 141.21 154.498L142.416 154.858C142.248 155.302 141.972 155.704 141.588 156.064C141.204 156.412 140.748 156.688 140.22 156.892C139.692 157.084 139.128 157.18 138.528 157.18ZM143.583 154.3C143.583 153.724 143.751 153.226 144.087 152.806C144.423 152.374 144.885 152.038 145.473 151.798C146.073 151.558 146.763 151.438 147.543 151.438C147.999 151.438 148.473 151.48 148.965 151.564C149.457 151.636 149.895 151.738 150.279 151.87V151.078C150.279 150.286 150.045 149.656 149.577 149.188C149.109 148.72 148.461 148.486 147.633 148.486C147.141 148.486 146.649 148.582 146.157 148.774C145.665 148.954 145.155 149.224 144.627 149.584L144.159 148.72C144.771 148.3 145.371 147.988 145.959 147.784C146.547 147.568 147.147 147.46 147.759 147.46C148.911 147.46 149.823 147.79 150.495 148.45C151.167 149.11 151.503 150.022 151.503 151.186V155.524C151.503 155.848 151.653 156.016 151.953 156.028V157C151.689 157.036 151.503 157.048 151.395 157.036C151.095 157.024 150.867 156.928 150.711 156.748C150.555 156.568 150.471 156.376 150.459 156.172L150.441 155.488C150.021 156.028 149.475 156.448 148.803 156.748C148.131 157.036 147.447 157.18 146.751 157.18C146.139 157.18 145.593 157.054 145.113 156.802C144.633 156.538 144.255 156.19 143.979 155.758C143.715 155.314 143.583 154.828 143.583 154.3ZM149.865 155.02C150.141 154.696 150.279 154.396 150.279 154.12V152.752C149.451 152.428 148.587 152.266 147.687 152.266C146.811 152.266 146.103 152.44 145.563 152.788C145.023 153.136 144.753 153.61 144.753 154.21C144.753 154.726 144.951 155.194 145.347 155.614C145.755 156.034 146.319 156.244 147.039 156.244C147.627 156.244 148.173 156.13 148.677 155.902C149.193 155.674 149.589 155.38 149.865 155.02ZM162.032 157H160.808V151.762C160.808 150.658 160.64 149.854 160.304 149.35C159.98 148.834 159.476 148.576 158.792 148.576C158.312 148.576 157.838 148.696 157.37 148.936C156.902 149.164 156.488 149.482 156.128 149.89C155.78 150.286 155.528 150.742 155.372 151.258V157H154.148V147.622H155.264V149.746C155.636 149.062 156.182 148.51 156.902 148.09C157.622 147.67 158.402 147.46 159.242 147.46C159.938 147.46 160.49 147.628 160.898 147.964C161.306 148.288 161.594 148.756 161.762 149.368C161.942 149.968 162.032 150.682 162.032 151.51V157ZM173.82 157.18C173.088 157.18 172.41 156.994 171.786 156.622C171.162 156.238 170.676 155.758 170.328 155.182V157H169.23V143.86H170.454V149.584C170.874 148.948 171.378 148.438 171.966 148.054C172.554 147.658 173.238 147.46 174.018 147.46C174.678 147.46 175.266 147.598 175.782 147.874C176.31 148.15 176.76 148.522 177.132 148.99C177.504 149.446 177.786 149.968 177.978 150.556C178.17 151.132 178.266 151.726 178.266 152.338C178.266 153.214 178.068 154.018 177.672 154.75C177.288 155.482 176.76 156.07 176.088 156.514C175.416 156.958 174.66 157.18 173.82 157.18ZM173.532 156.1C174.216 156.1 174.816 155.92 175.332 155.56C175.86 155.2 176.274 154.738 176.574 154.174C176.874 153.598 177.024 152.986 177.024 152.338C177.024 151.678 176.88 151.06 176.592 150.484C176.316 149.908 175.926 149.44 175.422 149.08C174.918 148.72 174.336 148.54 173.676 148.54C172.944 148.54 172.296 148.774 171.732 149.242C171.18 149.71 170.754 150.256 170.454 150.88V153.796C170.514 154.228 170.712 154.618 171.048 154.966C171.384 155.314 171.78 155.59 172.236 155.794C172.692 155.998 173.124 156.1 173.532 156.1ZM184.389 157.18C183.489 157.18 182.685 156.958 181.977 156.514C181.269 156.07 180.711 155.476 180.303 154.732C179.895 153.988 179.691 153.172 179.691 152.284C179.691 151.408 179.889 150.604 180.285 149.872C180.693 149.14 181.251 148.558 181.959 148.126C182.667 147.682 183.471 147.46 184.371 147.46C185.295 147.46 186.105 147.682 186.801 148.126C187.497 148.57 188.037 149.158 188.421 149.89C188.817 150.61 189.015 151.402 189.015 152.266C189.015 152.458 189.009 152.62 188.997 152.752H180.969C181.029 153.424 181.221 154.024 181.545 154.552C181.869 155.068 182.283 155.482 182.787 155.794C183.291 156.094 183.843 156.244 184.443 156.244C185.055 156.244 185.631 156.088 186.171 155.776C186.711 155.464 187.095 155.056 187.323 154.552L188.385 154.84C188.193 155.296 187.893 155.704 187.485 156.064C187.089 156.412 186.627 156.688 186.099 156.892C185.571 157.084 185.001 157.18 184.389 157.18ZM180.933 151.87H187.863C187.815 151.198 187.629 150.604 187.305 150.088C186.981 149.56 186.567 149.152 186.063 148.864C185.559 148.564 185.001 148.414 184.389 148.414C183.777 148.414 183.219 148.564 182.715 148.864C182.211 149.152 181.797 149.56 181.473 150.088C181.161 150.604 180.981 151.198 180.933 151.87ZM191.21 152.896V144.094H192.434V152.896H191.21ZM191.21 157V154.984H192.434V157H191.21Z" fill="#CEE7F0"/>
<path d="M108.519 136.18C107.775 136.18 107.127 136.012 106.575 135.676C106.023 135.34 105.591 134.896 105.279 134.344V139.834H102.867V126.568H104.973V128.188C105.321 127.636 105.771 127.204 106.323 126.892C106.887 126.568 107.523 126.406 108.231 126.406C109.083 126.406 109.839 126.628 110.499 127.072C111.159 127.504 111.681 128.092 112.065 128.836C112.449 129.568 112.641 130.378 112.641 131.266C112.641 132.19 112.461 133.024 112.101 133.768C111.753 134.5 111.267 135.088 110.643 135.532C110.031 135.964 109.323 136.18 108.519 136.18ZM107.709 134.128C108.201 134.128 108.627 133.996 108.987 133.732C109.359 133.456 109.647 133.102 109.851 132.67C110.067 132.226 110.175 131.758 110.175 131.266C110.175 130.738 110.061 130.264 109.833 129.844C109.605 129.412 109.293 129.076 108.897 128.836C108.513 128.584 108.069 128.458 107.565 128.458C107.109 128.458 106.653 128.608 106.197 128.908C105.741 129.208 105.435 129.586 105.279 130.042V132.256C105.495 132.784 105.825 133.228 106.269 133.588C106.713 133.948 107.193 134.128 107.709 134.128ZM118.649 136.18C117.629 136.18 116.747 135.958 116.003 135.514C115.271 135.07 114.701 134.482 114.293 133.75C113.885 133.006 113.681 132.202 113.681 131.338C113.681 130.45 113.879 129.634 114.275 128.89C114.683 128.134 115.259 127.534 116.003 127.09C116.747 126.634 117.635 126.406 118.667 126.406C119.699 126.406 120.581 126.634 121.313 127.09C122.045 127.534 122.603 128.128 122.987 128.872C123.383 129.604 123.581 130.396 123.581 131.248C123.581 131.56 123.563 131.83 123.527 132.058H116.237C116.297 132.79 116.567 133.366 117.047 133.786C117.539 134.206 118.103 134.416 118.739 134.416C119.219 134.416 119.669 134.302 120.089 134.074C120.521 133.834 120.815 133.522 120.971 133.138L123.041 133.714C122.693 134.434 122.135 135.028 121.367 135.496C120.599 135.952 119.693 136.18 118.649 136.18ZM116.183 130.528H121.115C121.043 129.82 120.773 129.25 120.305 128.818C119.849 128.374 119.291 128.152 118.631 128.152C117.983 128.152 117.425 128.374 116.957 128.818C116.501 129.25 116.243 129.82 116.183 130.528ZM130.666 128.656C129.934 128.656 129.28 128.8 128.704 129.088C128.128 129.364 127.714 129.766 127.462 130.294V136H125.05V126.568H127.264V128.584C127.588 127.936 128.008 127.426 128.524 127.054C129.052 126.682 129.604 126.478 130.18 126.442C130.432 126.442 130.594 126.448 130.666 126.46V128.656ZM132.587 136V128.908H131.345V127.072H132.587V126.496C132.587 125.332 132.869 124.408 133.433 123.724C134.009 123.028 134.777 122.68 135.737 122.68C136.505 122.68 137.279 122.866 138.059 123.238L137.573 125.056C137.393 124.96 137.177 124.882 136.925 124.822C136.685 124.75 136.463 124.714 136.259 124.714C135.419 124.714 134.999 125.278 134.999 126.406V127.072H137.303V128.908H134.999V136H132.587ZM142.924 136.18C141.904 136.18 141.022 135.958 140.278 135.514C139.546 135.07 138.976 134.482 138.568 133.75C138.16 133.006 137.956 132.202 137.956 131.338C137.956 130.45 138.154 129.634 138.55 128.89C138.958 128.134 139.534 127.534 140.278 127.09C141.022 126.634 141.91 126.406 142.942 126.406C143.974 126.406 144.856 126.634 145.588 127.09C146.32 127.534 146.878 128.128 147.262 128.872C147.658 129.604 147.856 130.396 147.856 131.248C147.856 131.56 147.838 131.83 147.802 132.058H140.512C140.572 132.79 140.842 133.366 141.322 133.786C141.814 134.206 142.378 134.416 143.014 134.416C143.494 134.416 143.944 134.302 144.364 134.074C144.796 133.834 145.09 133.522 145.246 133.138L147.316 133.714C146.968 134.434 146.41 135.028 145.642 135.496C144.874 135.952 143.968 136.18 142.924 136.18ZM140.458 130.528H145.39C145.318 129.82 145.048 129.25 144.58 128.818C144.124 128.374 143.566 128.152 142.906 128.152C142.258 128.152 141.7 128.374 141.232 128.818C140.776 129.25 140.518 129.82 140.458 130.528ZM153.718 136.18C152.698 136.18 151.816 135.952 151.072 135.496C150.328 135.04 149.752 134.44 149.344 133.696C148.936 132.952 148.732 132.148 148.732 131.284C148.732 130.408 148.93 129.598 149.326 128.854C149.734 128.11 150.31 127.516 151.054 127.072C151.798 126.628 152.68 126.406 153.7 126.406C154.732 126.406 155.608 126.628 156.328 127.072C157.06 127.516 157.606 128.098 157.966 128.818L155.608 129.538C155.188 128.818 154.546 128.458 153.682 128.458C153.214 128.458 152.794 128.578 152.422 128.818C152.05 129.046 151.756 129.376 151.54 129.808C151.324 130.228 151.216 130.72 151.216 131.284C151.216 131.836 151.324 132.328 151.54 132.76C151.768 133.18 152.068 133.516 152.44 133.768C152.812 134.008 153.226 134.128 153.682 134.128C154.114 134.128 154.51 134.026 154.87 133.822C155.242 133.606 155.5 133.336 155.644 133.012L158.002 133.732C157.678 134.44 157.138 135.028 156.382 135.496C155.638 135.952 154.75 136.18 153.718 136.18ZM165.138 135.514C164.814 135.658 164.412 135.802 163.932 135.946C163.464 136.09 162.978 136.162 162.474 136.162C162.03 136.162 161.622 136.084 161.25 135.928C160.878 135.772 160.578 135.526 160.35 135.19C160.134 134.842 160.026 134.392 160.026 133.84V128.422H158.784V126.568H160.026V123.508H162.438V126.568H164.418V128.422H162.438V133.03C162.438 133.354 162.522 133.588 162.69 133.732C162.87 133.876 163.086 133.948 163.338 133.948C163.59 133.948 163.836 133.906 164.076 133.822C164.316 133.738 164.508 133.666 164.652 133.606L165.138 135.514ZM82.3731 157.18C81.6531 157.18 81.0111 157.018 80.4471 156.694C79.8831 156.37 79.4391 155.926 79.1151 155.362V157H77.0091V143.86H79.4211V149.224C79.7571 148.66 80.1951 148.216 80.7351 147.892C81.2871 147.568 81.9291 147.406 82.6611 147.406C83.4771 147.406 84.1911 147.634 84.8031 148.09C85.4271 148.534 85.9131 149.128 86.2611 149.872C86.6091 150.616 86.7831 151.432 86.7831 152.32C86.7831 153.232 86.5911 154.054 86.2071 154.786C85.8231 155.518 85.2951 156.1 84.6231 156.532C83.9631 156.964 83.2131 157.18 82.3731 157.18ZM81.7071 155.128C82.2231 155.128 82.6731 155.002 83.0571 154.75C83.4531 154.498 83.7591 154.162 83.9751 153.742C84.2031 153.31 84.3171 152.842 84.3171 152.338C84.3171 151.822 84.2091 151.348 83.9931 150.916C83.7891 150.472 83.5011 150.118 83.1291 149.854C82.7571 149.59 82.3311 149.458 81.8511 149.458C81.3231 149.458 80.8371 149.638 80.3931 149.998C79.9611 150.346 79.6371 150.778 79.4211 151.294V153.544C79.5771 154.012 79.8831 154.396 80.3391 154.696C80.7951 154.984 81.2511 155.128 81.7071 155.128ZM94.0333 149.656C93.3013 149.656 92.6473 149.8 92.0713 150.088C91.4953 150.364 91.0813 150.766 90.8293 151.294V157H88.4173V147.568H90.6313V149.584C90.9553 148.936 91.3753 148.426 91.8913 148.054C92.4193 147.682 92.9713 147.478 93.5473 147.442C93.7993 147.442 93.9613 147.448 94.0333 147.46V149.656ZM99.6112 157.18C98.5792 157.18 97.6912 156.958 96.9472 156.514C96.2152 156.058 95.6512 155.458 95.2552 154.714C94.8592 153.97 94.6612 153.166 94.6612 152.302C94.6612 151.426 94.8592 150.616 95.2552 149.872C95.6632 149.128 96.2332 148.534 96.9652 148.09C97.7092 147.634 98.5912 147.406 99.6112 147.406C100.631 147.406 101.507 147.634 102.239 148.09C102.983 148.534 103.553 149.128 103.949 149.872C104.345 150.616 104.543 151.426 104.543 152.302C104.543 153.166 104.345 153.97 103.949 154.714C103.553 155.458 102.983 156.058 102.239 156.514C101.507 156.958 100.631 157.18 99.6112 157.18ZM97.1452 152.302C97.1452 152.854 97.2532 153.346 97.4692 153.778C97.6852 154.198 97.9792 154.528 98.3512 154.768C98.7232 155.008 99.1432 155.128 99.6112 155.128C100.067 155.128 100.481 155.008 100.853 154.768C101.225 154.516 101.519 154.18 101.735 153.76C101.963 153.328 102.077 152.836 102.077 152.284C102.077 151.744 101.963 151.264 101.735 150.844C101.519 150.412 101.225 150.076 100.853 149.836C100.481 149.584 100.067 149.458 99.6112 149.458C99.1432 149.458 98.7232 149.584 98.3512 149.836C97.9792 150.076 97.6852 150.412 97.4692 150.844C97.2532 151.264 97.1452 151.75 97.1452 152.302ZM117.555 147.568H119.841L115.899 157H113.883L112.299 152.95L110.751 157H108.717L104.793 147.568H107.061L109.869 154.696L110.967 151.618L109.329 147.586H111.327L112.299 150.466L113.289 147.586H115.287L113.649 151.618L114.765 154.696L117.555 147.568ZM124.2 157.18C123.396 157.18 122.628 157.048 121.896 156.784C121.164 156.52 120.534 156.13 120.006 155.614L120.87 154.048C121.434 154.504 121.986 154.84 122.526 155.056C123.066 155.272 123.594 155.38 124.11 155.38C124.578 155.38 124.95 155.296 125.226 155.128C125.514 154.96 125.658 154.708 125.658 154.372C125.658 154.024 125.484 153.79 125.136 153.67C124.788 153.538 124.302 153.376 123.678 153.184C122.982 152.968 122.4 152.746 121.932 152.518C121.464 152.29 121.11 152.014 120.87 151.69C120.642 151.366 120.528 150.946 120.528 150.43C120.528 149.506 120.876 148.768 121.572 148.216C122.268 147.664 123.192 147.388 124.344 147.388C125.016 147.388 125.652 147.496 126.252 147.712C126.852 147.916 127.398 148.252 127.89 148.72L126.918 150.25C125.994 149.53 125.1 149.17 124.236 149.17C123.852 149.17 123.51 149.242 123.21 149.386C122.922 149.53 122.778 149.782 122.778 150.142C122.778 150.478 122.916 150.718 123.192 150.862C123.48 151.006 123.912 151.162 124.488 151.33C125.232 151.558 125.862 151.78 126.378 151.996C126.906 152.212 127.302 152.488 127.566 152.824C127.842 153.16 127.98 153.616 127.98 154.192C127.98 155.128 127.638 155.86 126.954 156.388C126.27 156.916 125.352 157.18 124.2 157.18Z" fill="#F7D9CE"/>
<path d="M25.265 86.915C24.365 86.915 23.51 86.675 22.7 86.195C21.92 85.715 21.53 85.1 21.53 84.35C21.53 83.96 21.59 83.54 21.71 83.09C21.86 82.64 21.995 82.22 22.115 81.83C23.045 78.98 23.915 76.325 24.725 73.865C25.535 71.375 26.345 68.99 27.155 66.71C27.995 64.4 28.865 62.09 29.765 59.78C30.695 57.47 31.73 55.055 32.87 52.535C31.16 52.925 29.81 53.42 28.82 54.02C27.83 54.59 27.17 54.875 26.84 54.875C26.69 54.875 26.465 54.77 26.165 54.56C25.895 54.35 25.655 54.11 25.445 53.84C25.235 53.57 25.13 53.33 25.13 53.12C25.97 52.76 26.945 52.385 28.055 51.995C29.195 51.605 30.425 51.275 31.745 51.005C33.065 50.735 34.385 50.6 35.705 50.6C37.115 50.6 38.555 50.795 40.025 51.185C41.495 51.545 42.845 52.1 44.075 52.85C45.335 53.57 46.34 54.485 47.09 55.595C47.87 56.675 48.26 57.95 48.26 59.42C48.26 61.01 47.9 62.375 47.18 63.515C46.46 64.655 45.5 65.615 44.3 66.395C43.13 67.175 41.855 67.805 40.475 68.285C39.095 68.765 37.715 69.125 36.335 69.365C34.985 69.605 33.77 69.77 32.69 69.86C31.61 69.95 30.8 69.995 30.26 69.995H29.99C29.15 72.965 28.325 75.935 27.515 78.905C26.705 81.845 25.955 84.515 25.265 86.915ZM30.395 68.6C32.075 68.48 33.755 68.195 35.435 67.745C37.115 67.295 38.63 66.68 39.98 65.9C41.36 65.09 42.455 64.085 43.265 62.885C44.105 61.685 44.525 60.29 44.525 58.7C44.525 57.2 44.12 55.985 43.31 55.055C42.53 54.125 41.51 53.42 40.25 52.94C39.02 52.46 37.715 52.205 36.335 52.175C35.255 54.275 34.22 56.765 33.23 59.645C32.24 62.495 31.295 65.48 30.395 68.6ZM47.9837 84.98C46.0637 84.98 44.5787 84.455 43.5287 83.405C42.5087 82.385 41.9987 81.095 41.9987 79.535C41.9987 78.215 42.3287 76.82 42.9887 75.35C43.6787 73.85 44.5937 72.455 45.7337 71.165C46.8737 69.845 48.1337 68.78 49.5137 67.97C50.8937 67.16 52.2737 66.755 53.6537 66.755C54.4337 66.755 55.1687 66.965 55.8587 67.385C56.5787 67.775 56.9387 68.57 56.9387 69.77C56.9387 70.91 56.6087 71.975 55.9487 72.965C55.2887 73.955 54.4037 74.84 53.2937 75.62C52.1837 76.4 50.9537 77.045 49.6037 77.555C48.2837 78.035 46.9487 78.35 45.5987 78.5C45.5687 78.62 45.5387 78.755 45.5087 78.905C45.5087 79.025 45.5087 79.235 45.5087 79.535C45.5087 79.685 45.5237 79.955 45.5537 80.345C45.6137 80.705 45.7487 81.095 45.9587 81.515C46.1687 81.935 46.5137 82.295 46.9937 82.595C47.4737 82.895 48.1337 83.045 48.9737 83.045C50.2337 83.045 51.4937 82.7 52.7537 82.01C54.0437 81.29 55.2437 80.345 56.3537 79.175C57.4937 78.005 58.4387 76.7 59.1887 75.26L60.0887 75.98C59.2787 77.78 58.2287 79.355 56.9387 80.705C55.6787 82.055 54.2687 83.105 52.7087 83.855C51.1787 84.605 49.6037 84.98 47.9837 84.98ZM46.0937 76.835C46.8737 76.745 47.7437 76.475 48.7037 76.025C49.6637 75.575 50.5787 75.005 51.4487 74.315C52.3487 73.625 53.0837 72.875 53.6537 72.065C54.2237 71.225 54.5087 70.385 54.5087 69.545C54.5087 69.215 54.4487 68.99 54.3287 68.87C54.2087 68.75 54.0137 68.69 53.7437 68.69C53.0537 68.69 52.3337 68.945 51.5837 69.455C50.8337 69.935 50.0987 70.58 49.3787 71.39C48.6587 72.17 48.0137 73.04 47.4437 74C46.8737 74.96 46.4237 75.905 46.0937 76.835ZM66.4256 84.17C65.3156 84.17 64.4156 83.87 63.7256 83.27C63.0356 82.7 62.6906 81.92 62.6906 80.93C62.6906 80.09 62.9006 79.19 63.3206 78.23C63.7406 77.27 64.1606 76.325 64.5806 75.395C65.0306 74.465 65.2556 73.64 65.2556 72.92C65.2556 72.23 65.0306 71.66 64.5806 71.21C64.1306 70.73 63.6056 70.34 63.0056 70.04C62.3456 71.69 61.5956 73.295 60.7556 74.855C59.9456 76.385 59.2856 77.585 58.7756 78.455L58.1006 77.15C58.5206 76.37 59.0756 75.26 59.7656 73.82C60.4556 72.38 61.1156 70.775 61.7456 69.005C61.4456 68.705 61.2956 68.3 61.2956 67.79C61.2956 67.01 61.5356 66.275 62.0156 65.585C62.4956 64.895 62.9606 64.55 63.4106 64.55C63.7706 64.55 64.0256 64.76 64.1756 65.18C64.3556 65.57 64.4456 65.84 64.4456 65.99C64.4456 66.14 64.3706 66.41 64.2206 66.8C64.1006 67.19 64.0106 67.475 63.9506 67.655C63.9806 67.985 64.2356 68.315 64.7156 68.645C65.2256 68.945 65.7956 69.305 66.4256 69.725C67.0556 70.145 67.6106 70.67 68.0906 71.3C68.5706 71.93 68.8106 72.725 68.8106 73.685C68.8106 74.555 68.6156 75.44 68.2256 76.34C67.8356 77.24 67.4456 78.08 67.0556 78.86C66.6656 79.64 66.4706 80.315 66.4706 80.885C66.4706 81.305 66.5756 81.59 66.7856 81.74C67.0256 81.86 67.2956 81.92 67.5956 81.92C68.3156 81.92 69.0656 81.71 69.8456 81.29C70.6256 80.84 71.3906 80.27 72.1406 79.58C72.8906 78.89 73.5506 78.17 74.1206 77.42C74.6906 76.64 75.1256 75.935 75.4256 75.305L76.5056 76.115C75.9356 77.405 75.1106 78.68 74.0306 79.94C72.9506 81.17 71.7506 82.19 70.4306 83C69.1106 83.78 67.7756 84.17 66.4256 84.17ZM74.4032 95.6C74.0732 95.6 73.6832 95.495 73.2332 95.285C72.7532 95.075 72.3482 94.655 72.0182 94.025C71.6582 93.425 71.4782 92.51 71.4782 91.28C71.4782 89.99 71.7032 88.295 72.1532 86.195C72.5732 84.125 73.1732 81.83 73.9532 79.31C74.7032 76.76 75.5882 74.15 76.6082 71.48C77.6582 68.81 78.7682 66.245 79.9382 63.785C81.1382 61.295 82.3682 59.06 83.6282 57.08C84.9182 55.1 86.1932 53.525 87.4532 52.355C88.7132 51.185 89.9282 50.6 91.0982 50.6C91.8782 50.6 92.3882 50.84 92.6282 51.32C92.8682 51.77 92.9882 52.295 92.9882 52.895C92.9882 54.185 92.6282 55.595 91.9082 57.125C91.2182 58.655 90.2882 60.2 89.1182 61.76C87.9482 63.29 86.6282 64.745 85.1582 66.125C83.7182 67.505 82.2332 68.69 80.7032 69.68C80.5832 69.98 80.4632 70.28 80.3432 70.58C80.2232 70.88 80.1032 71.18 79.9832 71.48C80.3132 71.6 80.5682 71.81 80.7482 72.11C80.9582 72.41 81.0782 72.725 81.1082 73.055C81.3482 74.345 81.5882 75.5 81.8282 76.52C82.0682 77.51 82.4282 78.29 82.9082 78.86C83.4182 79.43 84.1382 79.715 85.0682 79.715C86.1182 79.715 87.0482 79.325 87.8582 78.545C88.6682 77.765 89.4932 76.67 90.3332 75.26L91.3232 75.98C90.3632 77.9 89.2832 79.31 88.0832 80.21C86.8832 81.08 85.8032 81.515 84.8432 81.515C83.8232 81.515 82.7582 81.11 81.6482 80.3C81.6182 82.16 81.3932 83.99 80.9732 85.79C80.5832 87.62 80.0432 89.27 79.3532 90.74C78.6632 92.21 77.8832 93.38 77.0132 94.25C76.1732 95.15 75.3032 95.6 74.4032 95.6ZM82.0082 66.53C83.8382 64.82 85.3982 63.155 86.6882 61.535C87.9782 59.915 88.9532 58.49 89.6132 57.26C90.3032 56 90.6482 55.115 90.6482 54.605C90.6482 54.365 90.5282 54.245 90.2882 54.245C89.5682 54.245 88.7432 54.8 87.8132 55.91C86.8832 56.99 85.9232 58.46 84.9332 60.32C83.9432 62.18 82.9682 64.25 82.0082 66.53ZM75.6632 92.81C76.0832 92.81 76.5332 92.375 77.0132 91.505C77.4932 90.635 77.9432 89.54 78.3632 88.22C78.7832 86.9 79.1282 85.52 79.3982 84.08C79.6682 82.67 79.8032 81.41 79.8032 80.3C79.8032 79.43 79.6982 78.665 79.4882 78.005C79.3082 77.315 78.9782 76.55 78.4982 75.71C77.4482 78.83 76.5932 81.74 75.9332 84.44C75.2732 87.14 74.9432 89.285 74.9432 90.875C74.9432 92.165 75.1832 92.81 75.6632 92.81ZM94.5218 84.98C92.6018 84.98 91.1168 84.455 90.0668 83.405C89.0468 82.385 88.5368 81.095 88.5368 79.535C88.5368 78.215 88.8668 76.82 89.5268 75.35C90.2168 73.85 91.1318 72.455 92.2718 71.165C93.4118 69.845 94.6718 68.78 96.0518 67.97C97.4318 67.16 98.8118 66.755 100.192 66.755C100.972 66.755 101.707 66.965 102.397 67.385C103.117 67.775 103.477 68.57 103.477 69.77C103.477 70.91 103.147 71.975 102.487 72.965C101.827 73.955 100.942 74.84 99.8318 75.62C98.7218 76.4 97.4918 77.045 96.1418 77.555C94.8218 78.035 93.4868 78.35 92.1368 78.5C92.1068 78.62 92.0768 78.755 92.0468 78.905C92.0468 79.025 92.0468 79.235 92.0468 79.535C92.0468 79.685 92.0618 79.955 92.0918 80.345C92.1518 80.705 92.2868 81.095 92.4968 81.515C92.7068 81.935 93.0518 82.295 93.5318 82.595C94.0118 82.895 94.6718 83.045 95.5118 83.045C96.7718 83.045 98.0318 82.7 99.2918 82.01C100.582 81.29 101.782 80.345 102.892 79.175C104.032 78.005 104.977 76.7 105.727 75.26L106.627 75.98C105.817 77.78 104.767 79.355 103.477 80.705C102.217 82.055 100.807 83.105 99.2468 83.855C97.7168 84.605 96.1418 84.98 94.5218 84.98ZM92.6318 76.835C93.4118 76.745 94.2818 76.475 95.2418 76.025C96.2018 75.575 97.1168 75.005 97.9868 74.315C98.8868 73.625 99.6218 72.875 100.192 72.065C100.762 71.225 101.047 70.385 101.047 69.545C101.047 69.215 100.987 68.99 100.867 68.87C100.747 68.75 100.552 68.69 100.282 68.69C99.5918 68.69 98.8718 68.945 98.1218 69.455C97.3718 69.935 96.6368 70.58 95.9168 71.39C95.1968 72.17 94.5518 73.04 93.9818 74C93.4118 74.96 92.9618 75.905 92.6318 76.835ZM109.724 85.52C108.164 85.52 106.874 85.025 105.854 84.035C104.864 83.075 104.369 81.59 104.369 79.58C104.369 78.11 104.654 76.67 105.224 75.26C105.794 73.85 106.559 72.59 107.519 71.48C108.479 70.34 109.544 69.44 110.714 68.78C111.914 68.12 113.129 67.79 114.359 67.79C115.619 67.79 116.519 68.105 117.059 68.735C117.629 69.365 117.914 70.1 117.914 70.94C117.914 71.78 117.704 72.605 117.284 73.415C116.894 74.195 116.354 74.585 115.664 74.585C115.094 74.585 114.629 74.3 114.269 73.73C114.569 73.52 114.884 73.13 115.214 72.56C115.544 71.99 115.709 71.255 115.709 70.355C115.709 69.845 115.424 69.59 114.854 69.59C114.104 69.59 113.309 69.935 112.469 70.625C111.659 71.285 110.894 72.155 110.174 73.235C109.484 74.285 108.914 75.41 108.464 76.61C108.044 77.78 107.834 78.86 107.834 79.85C107.834 80.69 108.044 81.47 108.464 82.19C108.914 82.88 109.769 83.225 111.029 83.225C112.169 83.225 113.354 82.895 114.584 82.235C115.814 81.575 116.969 80.66 118.049 79.49C119.129 78.29 119.999 76.865 120.659 75.215L121.559 76.025C120.839 77.855 119.834 79.49 118.544 80.93C117.284 82.34 115.874 83.45 114.314 84.26C112.784 85.1 111.254 85.52 109.724 85.52ZM123.719 85.07C122.399 85.07 121.334 84.68 120.524 83.9C119.714 83.12 119.309 81.935 119.309 80.345C119.309 79.115 119.534 77.585 119.984 75.755C120.464 73.925 121.064 72.035 121.784 70.085C121.574 70.025 121.319 69.98 121.019 69.95C120.749 69.89 120.479 69.8 120.209 69.68V68.285C120.689 68.345 121.079 68.39 121.379 68.42C121.709 68.45 122.039 68.48 122.369 68.51C122.999 66.92 123.674 65.39 124.394 63.92C125.144 62.42 125.879 61.085 126.599 59.915C127.349 58.745 128.054 57.83 128.714 57.17C129.374 56.48 129.959 56.135 130.469 56.135C130.769 56.135 131.054 56.255 131.324 56.495C131.594 56.705 131.729 57.02 131.729 57.44C131.729 58.04 131.414 58.895 130.784 60.005C130.184 61.115 129.434 62.42 128.534 63.92C127.634 65.39 126.764 66.965 125.924 68.645H127.319C128.639 68.645 129.824 68.63 130.874 68.6C131.954 68.54 133.049 68.45 134.159 68.33V69.815C132.509 69.965 130.994 70.085 129.614 70.175C128.234 70.265 126.914 70.325 125.654 70.355H125.114C124.484 71.825 123.929 73.34 123.449 74.9C122.999 76.43 122.774 77.93 122.774 79.4C122.774 80.63 122.969 81.5 123.359 82.01C123.749 82.52 124.364 82.775 125.204 82.775C126.704 82.775 128.234 82.1 129.794 80.75C131.384 79.37 132.764 77.51 133.934 75.17L134.564 75.62C133.784 77.39 132.809 78.995 131.639 80.435C130.499 81.875 129.254 83 127.904 83.81C126.554 84.65 125.159 85.07 123.719 85.07Z" fill="#F7D9CE"/>
<path d="M151.702 86.915C149.872 86.915 148.492 86.615 147.562 86.015C146.632 85.415 146.152 84.425 146.122 83.045C146.122 82.745 146.287 82.595 146.617 82.595C146.887 82.595 147.292 82.67 147.832 82.82C148.402 82.94 149.467 83 151.027 83C153.667 83 156.097 82.73 158.317 82.19C160.537 81.62 162.457 80.87 164.077 79.94C165.727 78.98 167.002 77.915 167.902 76.745C168.802 75.545 169.252 74.3 169.252 73.01C169.252 71.84 168.892 70.91 168.172 70.22C167.482 69.5 166.552 68.96 165.382 68.6C164.242 68.21 162.982 67.955 161.602 67.835C160.252 67.715 158.917 67.655 157.597 67.655C157.027 67.655 156.457 67.67 155.887 67.7C155.317 67.7 154.777 67.7 154.267 67.7C153.607 69.98 152.962 72.335 152.332 74.765C151.702 77.195 151.042 79.58 150.352 81.92C149.452 81.92 148.672 81.68 148.012 81.2C147.352 80.72 147.022 80.135 147.022 79.445C147.022 79.175 147.067 78.83 147.157 78.41C147.277 77.96 147.442 77.435 147.652 76.835C147.832 76.265 148.132 75.32 148.552 74C149.002 72.68 149.527 71.12 150.127 69.32C150.727 67.52 151.387 65.63 152.107 63.65C152.857 61.64 153.622 59.675 154.402 57.755C155.212 55.835 156.007 54.11 156.787 52.58C155.587 52.85 154.597 53.165 153.817 53.525C153.037 53.885 152.422 54.2 151.972 54.47C151.522 54.74 151.177 54.875 150.937 54.875C150.757 54.875 150.517 54.77 150.217 54.56C149.947 54.35 149.692 54.11 149.452 53.84C149.242 53.57 149.137 53.33 149.137 53.12C150.757 52.46 152.437 51.875 154.177 51.365C155.917 50.855 158.017 50.6 160.477 50.6C161.557 50.6 162.742 50.69 164.032 50.87C165.322 51.02 166.552 51.35 167.722 51.86C168.892 52.34 169.852 53.075 170.602 54.065C171.382 55.025 171.772 56.315 171.772 57.935C171.772 59.225 171.487 60.35 170.917 61.31C170.377 62.24 169.642 63.05 168.712 63.74C167.782 64.4 166.762 64.955 165.652 65.405C164.542 65.825 163.447 66.17 162.367 66.44C164.857 66.77 166.807 67.34 168.217 68.15C169.627 68.96 170.617 69.86 171.187 70.85C171.757 71.84 172.042 72.785 172.042 73.685C172.042 75.455 171.577 77.045 170.647 78.455C169.717 79.865 168.487 81.095 166.957 82.145C165.457 83.195 163.792 84.065 161.962 84.755C160.162 85.475 158.362 86.015 156.562 86.375C154.762 86.735 153.142 86.915 151.702 86.915ZM154.717 65.99C156.397 65.93 158.047 65.735 159.667 65.405C161.287 65.075 162.742 64.595 164.032 63.965C165.352 63.305 166.402 62.465 167.182 61.445C167.962 60.395 168.352 59.105 168.352 57.575C168.352 56.135 167.962 55.025 167.182 54.245C166.402 53.465 165.382 52.925 164.122 52.625C162.862 52.325 161.512 52.175 160.072 52.175H159.892C158.872 54.185 157.942 56.375 157.102 58.745C156.262 61.085 155.467 63.5 154.717 65.99ZM181.87 84.17C180.76 84.17 179.86 83.87 179.17 83.27C178.48 82.7 178.135 81.92 178.135 80.93C178.135 80.09 178.345 79.19 178.765 78.23C179.185 77.27 179.605 76.325 180.025 75.395C180.475 74.465 180.7 73.64 180.7 72.92C180.7 72.23 180.475 71.66 180.025 71.21C179.575 70.73 179.05 70.34 178.45 70.04C177.79 71.69 177.04 73.295 176.2 74.855C175.39 76.385 174.73 77.585 174.22 78.455L173.545 77.15C173.965 76.37 174.52 75.26 175.21 73.82C175.9 72.38 176.56 70.775 177.19 69.005C176.89 68.705 176.74 68.3 176.74 67.79C176.74 67.01 176.98 66.275 177.46 65.585C177.94 64.895 178.405 64.55 178.855 64.55C179.215 64.55 179.47 64.76 179.62 65.18C179.8 65.57 179.89 65.84 179.89 65.99C179.89 66.14 179.815 66.41 179.665 66.8C179.545 67.19 179.455 67.475 179.395 67.655C179.425 67.985 179.68 68.315 180.16 68.645C180.67 68.945 181.24 69.305 181.87 69.725C182.5 70.145 183.055 70.67 183.535 71.3C184.015 71.93 184.255 72.725 184.255 73.685C184.255 74.555 184.06 75.44 183.67 76.34C183.28 77.24 182.89 78.08 182.5 78.86C182.11 79.64 181.915 80.315 181.915 80.885C181.915 81.305 182.02 81.59 182.23 81.74C182.47 81.86 182.74 81.92 183.04 81.92C183.76 81.92 184.51 81.71 185.29 81.29C186.07 80.84 186.835 80.27 187.585 79.58C188.335 78.89 188.995 78.17 189.565 77.42C190.135 76.64 190.57 75.935 190.87 75.305L191.95 76.115C191.38 77.405 190.555 78.68 189.475 79.94C188.395 81.17 187.195 82.19 185.875 83C184.555 83.78 183.22 84.17 181.87 84.17ZM192.863 84.44C191.513 84.44 190.583 83.99 190.073 83.09C189.593 82.22 189.353 81.26 189.353 80.21C189.353 79.25 189.503 78.275 189.803 77.285C190.103 76.265 190.508 75.32 191.018 74.45C191.558 73.58 192.143 72.89 192.773 72.38C193.433 71.84 194.093 71.57 194.753 71.57C194.963 71.57 195.203 71.615 195.473 71.705C195.773 71.765 195.983 71.87 196.103 72.02C195.623 72.62 195.128 73.4 194.618 74.36C194.138 75.29 193.733 76.265 193.403 77.285C193.103 78.305 192.953 79.235 192.953 80.075C192.953 80.675 193.058 81.17 193.268 81.56C193.508 81.95 193.913 82.145 194.483 82.145C195.053 82.145 195.728 81.83 196.508 81.2C197.318 80.54 198.083 79.79 198.803 78.95C197.843 78.08 197.153 77.135 196.733 76.115C196.313 75.065 196.103 73.805 196.103 72.335C196.103 71.705 196.253 70.985 196.553 70.175C196.883 69.365 197.393 68.66 198.083 68.06C198.803 67.46 199.763 67.16 200.963 67.16C202.253 67.16 203.153 67.52 203.663 68.24C204.203 68.96 204.473 69.815 204.473 70.805C204.473 71.915 204.173 73.16 203.573 74.54C203.003 75.92 202.313 77.225 201.503 78.455C201.863 78.635 202.283 78.725 202.763 78.725C203.213 78.725 203.753 78.62 204.383 78.41C205.013 78.2 205.628 77.855 206.228 77.375C206.828 76.865 207.308 76.19 207.668 75.35L208.478 75.935C207.818 77.465 206.933 78.59 205.823 79.31C204.743 80 203.678 80.345 202.628 80.345C202.238 80.345 201.848 80.315 201.458 80.255C201.068 80.165 200.708 80.06 200.378 79.94C199.358 81.14 198.188 82.19 196.868 83.09C195.548 83.99 194.213 84.44 192.863 84.44ZM199.973 77.51C200.693 76.46 201.308 75.335 201.818 74.135C202.328 72.935 202.583 71.825 202.583 70.805C202.583 69.485 202.163 68.825 201.323 68.825C200.753 68.825 200.168 69.23 199.568 70.04C198.968 70.85 198.668 71.87 198.668 73.1C198.668 73.73 198.773 74.495 198.983 75.395C199.223 76.295 199.553 77 199.973 77.51ZM219.731 84.71C218.711 84.71 218.021 84.26 217.661 83.36C217.331 82.49 217.136 81.44 217.076 80.21C217.106 79.85 217.121 79.355 217.121 78.725C217.151 78.095 217.181 77.57 217.211 77.15C216.581 78.29 215.891 79.415 215.141 80.525C214.391 81.635 213.596 82.55 212.756 83.27C211.916 83.99 211.031 84.35 210.101 84.35C209.081 84.35 208.241 83.9 207.581 83C206.921 82.07 206.591 80.96 206.591 79.67C206.591 78.8 206.726 77.795 206.996 76.655C207.296 75.515 207.656 74.405 208.076 73.325C208.526 72.245 208.976 71.345 209.426 70.625C209.906 69.905 210.326 69.545 210.686 69.545C210.896 69.545 211.256 69.665 211.766 69.905C212.306 70.145 212.636 70.46 212.756 70.85C212.426 71.33 212.021 72.065 211.541 73.055C211.091 74.045 210.686 75.11 210.326 76.25C209.996 77.36 209.831 78.38 209.831 79.31C209.831 79.49 209.846 79.805 209.876 80.255C209.936 80.675 210.071 81.065 210.281 81.425C210.491 81.785 210.806 81.965 211.226 81.965C211.886 81.965 212.576 81.56 213.296 80.75C214.046 79.94 214.796 78.92 215.546 77.69C216.296 76.46 217.001 75.2 217.661 73.91C217.931 72.62 218.156 71.69 218.336 71.12C218.516 70.55 218.696 70.19 218.876 70.04C219.086 69.89 219.326 69.815 219.596 69.815C220.796 69.815 221.396 70.25 221.396 71.12C221.396 71.15 221.366 71.285 221.306 71.525C221.246 71.735 221.201 71.87 221.171 71.93C220.871 72.86 220.631 74.075 220.451 75.575C220.271 77.045 220.181 78.545 220.181 80.075C220.181 80.795 220.226 81.365 220.316 81.785C220.406 82.175 220.631 82.37 220.991 82.37C221.561 82.37 222.236 81.935 223.016 81.065C223.796 80.195 224.591 79.1 225.401 77.78C226.241 76.46 226.976 75.125 227.606 73.775C227.606 72.215 227.711 71.03 227.921 70.22C228.161 69.41 228.461 68.855 228.821 68.555C229.211 68.225 229.631 68.06 230.081 68.06C230.831 68.06 231.341 68.3 231.611 68.78C231.911 69.26 232.061 69.665 232.061 69.995C232.061 70.295 231.986 70.58 231.836 70.85C231.686 71.09 231.566 71.315 231.476 71.525C231.266 71.975 231.056 72.515 230.846 73.145C230.666 73.775 230.576 74.57 230.576 75.53C230.576 76.31 230.696 77.06 230.936 77.78C231.176 78.5 231.716 78.86 232.556 78.86C233.096 78.86 233.636 78.62 234.176 78.14C234.746 77.66 235.361 76.76 236.021 75.44L236.876 76.115C236.216 77.675 235.466 78.755 234.626 79.355C233.786 79.925 232.976 80.21 232.196 80.21C231.206 80.21 230.366 79.85 229.676 79.13C228.986 78.41 228.446 77.525 228.056 76.475C227.306 77.765 226.466 79.055 225.536 80.345C224.636 81.605 223.691 82.64 222.701 83.45C221.711 84.29 220.721 84.71 219.731 84.71ZM240.289 85.295C238.789 85.295 237.574 84.98 236.644 84.35C235.744 83.75 235.099 82.985 234.709 82.055C234.319 81.095 234.124 80.12 234.124 79.13C234.124 78.26 234.244 77.585 234.484 77.105C234.724 76.625 235.024 76.28 235.384 76.07C235.744 75.83 236.074 75.65 236.374 75.53C236.704 75.41 236.944 75.275 237.094 75.125C237.844 74.345 238.609 73.445 239.389 72.425C240.199 71.375 240.889 70.22 241.459 68.96V68.51C241.459 67.31 241.654 66.47 242.044 65.99C242.464 65.48 242.944 65.225 243.484 65.225C243.844 65.225 244.099 65.315 244.249 65.495C244.429 65.675 244.534 65.885 244.564 66.125C244.564 66.305 244.519 66.515 244.429 66.755C244.369 66.995 244.339 67.325 244.339 67.745C244.339 68.645 244.549 69.68 244.969 70.85C245.419 71.99 245.854 73.205 246.274 74.495C246.724 75.785 246.949 77.105 246.949 78.455C246.949 78.815 246.934 79.145 246.904 79.445C246.874 79.745 246.829 80.03 246.769 80.3C247.699 80.06 248.614 79.55 249.514 78.77C250.414 77.96 251.269 76.775 252.079 75.215L252.619 75.62C252.049 77.33 251.224 78.71 250.144 79.76C249.064 80.78 247.804 81.41 246.364 81.65C245.884 82.88 245.089 83.795 243.979 84.395C242.899 84.995 241.669 85.295 240.289 85.295ZM243.214 80.21C243.274 80 243.304 79.76 243.304 79.49C243.334 79.19 243.349 78.965 243.349 78.815C243.319 77.465 243.139 76.13 242.809 74.81C242.479 73.49 242.149 72.14 241.819 70.76C241.279 71.69 240.649 72.695 239.929 73.775C239.209 74.855 238.534 75.725 237.904 76.385C238.384 77.195 239.089 77.96 240.019 78.68C240.949 79.4 242.014 79.91 243.214 80.21ZM239.974 83.315C240.574 83.315 241.129 83.165 241.639 82.865C242.149 82.565 242.554 82.13 242.854 81.56C241.624 81.29 240.514 80.81 239.524 80.12C238.534 79.43 237.769 78.725 237.229 78.005C236.809 78.095 236.599 78.5 236.599 79.22C236.599 80.21 236.884 81.14 237.454 82.01C238.024 82.88 238.864 83.315 239.974 83.315Z" fill="#CEE7F0"/>
<path d="M217.839 30H273V105H1V30H54.2587" stroke="#CEE7F0"/>
</svg>
